<svg id="visual" viewBox="0 0 960 540" width="960" height="540" xmlns="http://www.w3.org/2000/svg" xmlns:xlink="http://www.w3.org/1999/xlink" version="1.1"><rect x="0" y="0" width="960" height="540" fill="#f9f9f9"></rect><defs><linearGradient id="grad1_0" x1="43.8%" y1="0%" x2="100%" y2="100%"><stop offset="14.444444444444446%" stop-color="#f9f9f9" stop-opacity="1"></stop><stop offset="85.55555555555554%" stop-color="#f9f9f9" stop-opacity="1"></stop></linearGradient></defs><defs><linearGradient id="grad2_0" x1="0%" y1="0%" x2="56.3%" y2="100%"><stop offset="14.444444444444446%" stop-color="#f9f9f9" stop-opacity="1"></stop><stop offset="85.55555555555554%" stop-color="#f9f9f9" stop-opacity="1"></stop></linearGradient></defs><g transform="translate(960, 0)"><path d="M0 216C-28.2 213 -56.4 209.9 -82.7 199.6C-108.9 189.2 -133.1 171.6 -149.9 149.9C-166.7 128.2 -175.9 102.6 -185.7 76.9C-195.5 51.3 -205.7 25.6 -216 0L0 0Z" fill="#D9C6E8"></path></g><g transform="translate(0, 540)"><path d="M0 -216C28.2 -212.8 56.4 -209.5 82.7 -199.6C108.9 -189.6 133.2 -172.8 152 -152C170.9 -131.2 184.3 -106.4 194 -80.4C203.8 -54.3 209.9 -27.2 216 0L0 0Z" fill="#D9C6E8"></path></g></svg>