<svg id="visual" viewBox="0 0 960 540" width="960" height="540" xmlns="http://www.w3.org/2000/svg" xmlns:xlink="http://www.w3.org/1999/xlink" version="1.1"><rect x="0" y="0" width="960" height="540" fill="#f9f9f9"></rect><defs><linearGradient id="grad1_0" x1="43.8%" y1="100%" x2="100%" y2="0%"><stop offset="14.444444444444446%" stop-color="#f9f9f9" stop-opacity="1"></stop><stop offset="85.55555555555554%" stop-color="#f9f9f9" stop-opacity="1"></stop></linearGradient></defs><defs><linearGradient id="grad2_0" x1="0%" y1="100%" x2="56.3%" y2="0%"><stop offset="14.444444444444446%" stop-color="#f9f9f9" stop-opacity="1"></stop><stop offset="85.55555555555554%" stop-color="#f9f9f9" stop-opacity="1"></stop></linearGradient></defs><g transform="translate(960, 540)"><path d="M-216 0C-207.5 -25.5 -199 -51.1 -190.3 -78.8C-181.6 -106.6 -172.8 -136.6 -152.7 -152.7C-132.7 -168.8 -101.6 -171 -74.2 -179.2C-46.9 -187.5 -23.5 -201.7 0 -216L0 0Z" fill="#D9C6E8"></path></g><g transform="translate(0, 0)"><path d="M216 0C213.9 29.2 211.8 58.3 199.6 82.7C187.4 107 165.1 126.6 143.5 143.5C122 160.5 101.1 175 77.3 186.6C53.5 198.3 26.7 207.1 0 216L0 0Z" fill="#D9C6E8"></path></g></svg>