<svg id="visual" viewBox="0 0 675 900" width="675" height="900" xmlns="http://www.w3.org/2000/svg" xmlns:xlink="http://www.w3.org/1999/xlink" version="1.1"><rect x="0" y="0" width="675" height="900" fill="#f9f9f9"></rect><defs><linearGradient id="grad1_0" x1="0%" y1="0%" x2="100%" y2="100%"><stop offset="30%" stop-color="#f9f9f9" stop-opacity="1"></stop><stop offset="70%" stop-color="#f9f9f9" stop-opacity="1"></stop></linearGradient></defs><defs><linearGradient id="grad2_0" x1="0%" y1="0%" x2="100%" y2="100%"><stop offset="30%" stop-color="#f9f9f9" stop-opacity="1"></stop><stop offset="70%" stop-color="#f9f9f9" stop-opacity="1"></stop></linearGradient></defs><g transform="translate(675, 0)"><path d="M0 225C-26.4 215.4 -52.7 205.8 -81.5 196.8C-110.3 187.8 -141.5 179.3 -159.1 159.1C-176.7 138.9 -180.7 106.9 -189.4 78.5C-198.1 50 -211.6 25 -225 0L0 0Z" fill="#D9C6E8"></path></g><g transform="translate(0, 900)"><path d="M0 -225C28 -217 56.1 -209 81.9 -197.7C107.7 -186.5 131.3 -172 153.4 -153.4C175.6 -134.9 196.2 -112.4 207.9 -86.1C219.6 -59.9 222.3 -29.9 225 0L0 0Z" fill="#D9C6E8"></path></g></svg>