<svg id="visual" viewBox="0 0 450 900" width="450" height="900" xmlns="http://www.w3.org/2000/svg" xmlns:xlink="http://www.w3.org/1999/xlink" version="1.1"><rect x="0" y="0" width="450" height="900" fill="#f9f9f9"></rect><defs><linearGradient id="grad1_0" x1="0%" y1="100%" x2="100%" y2="0%"><stop offset="30%" stop-color="#f9f9f9" stop-opacity="1"></stop><stop offset="70%" stop-color="#f9f9f9" stop-opacity="1"></stop></linearGradient></defs><defs><linearGradient id="grad2_0" x1="0%" y1="100%" x2="100%" y2="0%"><stop offset="30%" stop-color="#f9f9f9" stop-opacity="1"></stop><stop offset="70%" stop-color="#f9f9f9" stop-opacity="1"></stop></linearGradient></defs><g transform="translate(450, 900)"><path d="M-180 0C-172 -21.4 -163.9 -42.9 -156.1 -64.7C-148.4 -86.5 -140.9 -108.7 -126.6 -126.6C-112.3 -144.5 -91.1 -158.1 -68.9 -166.3C-46.6 -174.5 -23.3 -177.2 0 -180L0 0Z" fill="#D9C6E8"></path></g><g transform="translate(0, 0)"><path d="M180 0C169.8 20.3 159.5 40.6 152.4 63.1C145.3 85.7 141.3 110.6 127.3 127.3C113.2 144 89.1 152.4 66.2 159.8C43.3 167.2 21.7 173.6 0 180L0 0Z" fill="#D9C6E8"></path></g></svg>