<svg id="visual" viewBox="0 0 600 900" width="600" height="900" xmlns="http://www.w3.org/2000/svg" xmlns:xlink="http://www.w3.org/1999/xlink" version="1.1"><rect x="0" y="0" width="600" height="900" fill="#f9f9f9"></rect><defs><linearGradient id="grad1_0" x1="0%" y1="100%" x2="100%" y2="0%"><stop offset="30%" stop-color="#f9f9f9" stop-opacity="1"></stop><stop offset="70%" stop-color="#f9f9f9" stop-opacity="1"></stop></linearGradient></defs><defs><linearGradient id="grad2_0" x1="0%" y1="100%" x2="100%" y2="0%"><stop offset="30%" stop-color="#f9f9f9" stop-opacity="1"></stop><stop offset="70%" stop-color="#f9f9f9" stop-opacity="1"></stop></linearGradient></defs><g transform="translate(600, 900)"><path d="M-216.3 0C-204.4 -25.2 -192.4 -50.5 -182 -75.4C-171.6 -100.3 -162.9 -125 -147.1 -147.1C-131.3 -169.2 -108.5 -188.7 -82.8 -199.9C-57.1 -211 -28.6 -213.7 0 -216.3L0 0Z" fill="#D9C6E8"></path></g><g transform="translate(0, 0)"><path d="M216.3 0C213.3 29.2 210.2 58.4 197.7 81.9C185.2 105.4 163.3 123.1 143.5 143.5C123.8 164 106.3 187.3 82.8 199.9C59.2 212.5 29.6 214.4 0 216.3L0 0Z" fill="#D9C6E8"></path></g></svg>