<svg id="visual" viewBox="0 0 960 540" width="960" height="540" xmlns="http://www.w3.org/2000/svg" xmlns:xlink="http://www.w3.org/1999/xlink" version="1.1"><path d="M0 415L22.8 423C45.7 431 91.3 447 137 454.2C182.7 461.3 228.3 459.7 274 463.5C319.7 467.3 365.3 476.7 411.2 480C457 483.3 503 480.7 548.8 470.5C594.7 460.3 640.3 442.7 686 441C731.7 439.3 777.3 453.7 823 449.7C868.7 445.7 914.3 423.3 937.2 412.2L960 401L960 541L937.2 541C914.3 541 868.7 541 823 541C777.3 541 731.7 541 686 541C640.3 541 594.7 541 548.8 541C503 541 457 541 411.2 541C365.3 541 319.7 541 274 541C228.3 541 182.7 541 137 541C91.3 541 45.7 541 22.8 541L0 541Z" fill="#D9C6E8" stroke-linecap="round" stroke-linejoin="miter"></path></svg>